<svg width="74" height="50" viewBox="0 0 74 50" fill="none" xmlns="http://www.w3.org/2000/svg">
<path fill-rule="evenodd" clip-rule="evenodd" d="M36.942 0L44.2358 12.4648L57.1553 5.1058L57.2428 20.116L73.9355 20.2133L61.318 42.3649C60.0677 44.657 58.1977 46.6398 55.7806 48.0353C49.4719 51.6777 41.5625 50.0918 36.9763 44.6327C36.9679 44.6359 36.9595 44.6391 36.9511 44.6423C32.3637 50.0937 24.46 51.6755 18.155 48.0353C15.7378 46.6398 13.8678 44.657 12.6175 42.3649L0 20.2133L16.8221 20.1152L16.9096 5.1058L29.6934 12.3875L36.942 0ZM31.0071 13.1358L36.9501 2.97943L42.9343 13.2061L37.0324 16.5678L31.0071 13.1358ZM28.9369 13.6802L18.4064 7.68199L18.3339 20.1064L25.2001 20.0664L28.9369 13.6802ZM16.8133 21.613L2.58434 21.696L14.1856 42.0634C15.3352 44.1709 17.0546 45.994 19.2771 47.2772C24.715 50.4168 31.4464 49.3316 35.7412 45.0479C29.2851 46.9127 22.1896 44.2851 18.7213 38.2778C17.3257 35.8607 16.6977 33.2085 16.7609 30.5983L16.8133 21.613ZM35.7345 44.4033C29.7948 46.1253 23.2635 43.7099 20.0721 38.1823C18.789 35.9598 18.2115 33.5213 18.2697 31.1213L18.3252 21.6042L24.3207 21.5692L24.067 22.0028C22.7071 24.2317 21.9249 26.8425 21.9249 29.6337C21.9249 37.4157 28.0054 43.7965 35.7345 44.4033ZM38.9455 43.7086C45.6257 42.7545 50.7577 37.0817 50.7577 30.2263C50.7577 27.66 50.0385 25.2595 48.7881 23.2101L47.8293 21.5715C46.5379 21.5489 45.2362 21.7104 43.9639 22.0669C44.2361 22.4486 44.4925 22.8466 44.7316 23.2608C48.8231 30.3476 46.3174 39.4542 39.1348 43.6011C39.0719 43.6374 39.0088 43.6732 38.9455 43.7086ZM42.6815 22.4973C43.1615 23.0758 43.5992 23.7022 43.9875 24.3747C47.7495 30.8907 45.4456 39.2639 38.8415 43.0768C38.469 43.2919 38.0906 43.4879 37.7078 43.6651C37.9867 43.2729 38.2497 42.8639 38.4953 42.4386C41.593 37.0732 41.0468 30.6157 37.618 25.9862C38.5337 24.9774 39.6179 24.0924 40.8591 23.3759C41.4527 23.0331 42.0618 22.7407 42.6815 22.4973ZM43.0772 20.9439C44.3489 20.4797 45.6581 20.2025 46.9698 20.1027L43.6978 14.511L38.5597 17.4377L39.0611 17.7233C40.5574 18.5395 41.9218 19.6198 43.0772 20.9439ZM37.0466 18.2995L38.7737 19.2833C39.8567 19.874 40.8645 20.6152 41.7626 21.4978C41.4257 21.6594 41.0924 21.8351 40.7635 22.025C39.2892 22.8762 38.0185 23.9458 36.9678 25.1709C35.917 23.9458 34.6463 22.8762 33.172 22.025C32.8763 21.8543 32.577 21.695 32.2747 21.5471C33.1832 20.6463 34.2055 19.8913 35.3053 19.2914L37.0466 18.2995ZM35.5194 17.4296L35.0038 17.7233C33.4939 18.5469 32.1183 19.6394 30.9563 20.98C29.643 20.49 28.2886 20.2002 26.9319 20.1001L30.2506 14.4285L35.5194 17.4296ZM37.9791 42.1312C40.8851 37.0978 40.3033 31.0192 36.9773 26.7469C33.6416 31.0199 33.0554 37.1064 35.9646 42.1453C36.2703 42.6748 36.6054 43.1768 36.9665 43.6501C37.3316 43.1726 37.6703 42.666 37.9791 42.1312ZM33.0846 23.3618C32.5279 23.0403 31.9576 22.7632 31.3778 22.5292C30.9055 23.1011 30.4744 23.7196 30.0915 24.3829C26.3295 30.8989 28.6334 39.2721 35.2375 43.0849C35.5429 43.2612 35.8521 43.4247 36.1646 43.5755C35.9091 43.2108 35.6672 42.8317 35.4403 42.4386C32.3397 37.0682 32.8898 30.6039 36.327 25.9735C35.411 24.9641 34.3263 24.0787 33.0846 23.3618ZM30.0888 22.0839C28.7703 21.7023 27.4188 21.5311 26.0788 21.5581L25.1121 23.2101C23.8617 25.2595 23.1425 27.66 23.1425 30.2263C23.1425 37.1559 28.3862 42.8771 35.172 43.7379C35.0911 43.6931 35.0105 43.6475 34.9301 43.6011C27.7475 39.4542 25.2418 30.3476 29.3333 23.2608C29.5689 22.8528 29.8212 22.4604 30.0888 22.0839ZM38.1319 44.9912C42.4233 49.3336 49.1988 50.4481 54.6666 47.2913C56.8891 46.0081 58.6085 44.185 59.7581 42.0775L71.3594 21.7101L57.2517 21.6278L57.304 30.5983C57.3672 33.2085 56.7392 35.8607 55.3436 38.2778C51.8409 44.3447 44.6388 46.9645 38.1319 44.9912ZM55.7451 20.1073L55.6726 7.69013L44.9993 13.7697L48.6837 20.0661L55.7451 20.1073ZM49.5713 21.583L55.7539 21.6191L55.8093 31.1294C55.8675 33.5294 55.29 35.9679 54.0069 38.1904C50.8039 43.7381 44.2366 46.1509 38.2798 44.3925C45.9468 43.7247 51.959 37.3719 51.959 29.6337C51.959 26.8426 51.1768 24.2317 49.817 22.0029L49.5713 21.583Z" fill="white"/>
</svg>
